<svg version="1.2" xmlns="http://www.w3.org/2000/svg" viewBox="0 0 15 44" width="15" height="44">
	<title>search-svg</title>
	<style>
		.s0 { fill: none } 
		.s1 { fill: #ffffff } 
	</style>
	<path id="Layer" class="s0" d="m0-22h15v44h-15z"/>
	<path id="Layer" fill-rule="evenodd" class="s1" d="m14.1 27.7q0 0.3-0.1 0.4-0.2 0.2-0.4 0.2-0.2 0-0.4-0.2l-3.5-3.5c-2.2 1.8-5.5 1.6-7.5-0.6-1.9-2.1-1.8-5.4 0.2-7.4 2.1-2.1 5.4-2.2 7.5-0.2 2.2 1.9 2.4 5.2 0.6 7.4l3.5 3.5q0.1 0.2 0.1 0.4zm-11.8-5.6q0.3 0.8 0.9 1.4 0.6 0.6 1.4 0.9 0.8 0.3 1.7 0.3c1.7 0 3.3-1 4-2.6 0.6-1.6 0.3-3.5-1-4.7-1.2-1.3-3.1-1.6-4.7-1-1.6 0.7-2.6 2.3-2.6 4q0 0.9 0.3 1.7z"/>
</svg>